<?xml version="1.0" encoding="UTF-8" standalone="no"?>
<!DOCTYPE svg PUBLIC "-//W3C//DTD SVG 1.1//EN"
 "http://www.w3.org/Graphics/SVG/1.1/DTD/svg11.dtd">
<!-- Generated by graphviz version 2.46.0 (20210118.1747)
 -->
<!-- Pages: 1 -->
<svg width="933pt" height="92pt"
 viewBox="0.00 0.00 933.00 91.70" xmlns="http://www.w3.org/2000/svg" xmlns:xlink="http://www.w3.org/1999/xlink">
<g id="graph0" class="graph" transform="scale(1 1) rotate(0) translate(4 87.7)">
<polygon fill="white" stroke="transparent" points="-4,4 -4,-87.7 929,-87.7 929,4 -4,4"/>
<!-- &#45;1 -->
<g id="node1" class="node">
<title>&#45;1</title>
<polygon fill="lightgray" stroke="black" points="715,-83.7 691,-83.7 691,-65.7 715,-65.7 715,-83.7"/>
<text text-anchor="middle" x="703" y="-72.5" font-family="Times New Roman,serif" font-size="9.00">&#45;1</text>
</g>
<!-- 0 -->
<g id="node22" class="node">
<title>0</title>
<ellipse fill="lightblue" stroke="black" cx="446" cy="-14.85" rx="14.7" ry="14.7"/>
<text text-anchor="middle" x="446" y="-12.65" font-family="Times New Roman,serif" font-size="9.00">0</text>
</g>
<!-- &#45;1&#45;&gt;0 -->
<g id="edge1" class="edge">
<title>&#45;1&#45;&gt;0</title>
<path fill="none" stroke="green" stroke-width="0.14" d="M690.7,-68.55C687.87,-67.5 684.86,-66.48 682,-65.7 589.79,-40.57 559.91,-62.09 470,-29.7 469.13,-29.38 468.25,-29.04 467.38,-28.67"/>
<polygon fill="green" stroke="green" stroke-width="0.14" points="468.8,-25.47 458.3,-24.06 465.63,-31.71 468.8,-25.47"/>
</g>
<!-- 1 -->
<g id="node23" class="node">
<title>1</title>
<ellipse fill="lightblue" stroke="black" cx="494" cy="-14.85" rx="14.7" ry="14.7"/>
<text text-anchor="middle" x="494" y="-12.65" font-family="Times New Roman,serif" font-size="9.00">1</text>
</g>
<!-- &#45;1&#45;&gt;1 -->
<g id="edge2" class="edge">
<title>&#45;1&#45;&gt;1</title>
<path fill="none" stroke="red" stroke-width="0.29" d="M690.64,-68.74C687.82,-67.68 684.82,-66.61 682,-65.7 624.04,-47.03 554.44,-29.93 518.37,-21.45"/>
<polygon fill="red" stroke="red" stroke-width="0.29" points="518.83,-17.96 508.3,-19.1 517.24,-24.78 518.83,-17.96"/>
</g>
<!-- &#45;2 -->
<g id="node2" class="node">
<title>&#45;2</title>
<polygon fill="lightgray" stroke="black" points="757,-83.7 733,-83.7 733,-65.7 757,-65.7 757,-83.7"/>
<text text-anchor="middle" x="745" y="-72.5" font-family="Times New Roman,serif" font-size="9.00">&#45;2</text>
</g>
<!-- &#45;2&#45;&gt;0 -->
<g id="edge3" class="edge">
<title>&#45;2&#45;&gt;0</title>
<path fill="none" stroke="green" stroke-width="0.18" d="M732.71,-68.49C729.89,-67.44 726.87,-66.44 724,-65.7 613.6,-37.23 577.79,-66.87 470,-29.7 469.12,-29.4 468.25,-29.06 467.37,-28.7"/>
<polygon fill="green" stroke="green" stroke-width="0.18" points="468.78,-25.49 458.27,-24.13 465.64,-31.75 468.78,-25.49"/>
</g>
<!-- &#45;2&#45;&gt;1 -->
<g id="edge4" class="edge">
<title>&#45;2&#45;&gt;1</title>
<path fill="none" stroke="red" stroke-width="0.26" d="M732.67,-68.65C729.85,-67.59 726.84,-66.54 724,-65.7 650.5,-43.87 561.16,-27.26 518.7,-19.94"/>
<polygon fill="red" stroke="red" stroke-width="0.26" points="519.17,-16.47 508.72,-18.25 518,-23.37 519.17,-16.47"/>
</g>
<!-- &#45;3 -->
<g id="node3" class="node">
<title>&#45;3</title>
<polygon fill="lightgray" stroke="black" points="799,-83.7 775,-83.7 775,-65.7 799,-65.7 799,-83.7"/>
<text text-anchor="middle" x="787" y="-72.5" font-family="Times New Roman,serif" font-size="9.00">&#45;3</text>
</g>
<!-- &#45;3&#45;&gt;0 -->
<g id="edge5" class="edge">
<title>&#45;3&#45;&gt;0</title>
<path fill="none" stroke="green" stroke-width="0.21" d="M774.72,-68.45C771.9,-67.4 768.88,-66.41 766,-65.7 637.35,-33.87 595.71,-71.66 470,-29.7 469.12,-29.41 468.24,-29.08 467.36,-28.72"/>
<polygon fill="green" stroke="green" stroke-width="0.21" points="468.76,-25.51 458.25,-24.18 465.64,-31.78 468.76,-25.51"/>
</g>
<!-- &#45;3&#45;&gt;1 -->
<g id="edge6" class="edge">
<title>&#45;3&#45;&gt;1</title>
<path fill="none" stroke="red" stroke-width="0.28" d="M774.69,-68.58C771.87,-67.53 768.86,-66.5 766,-65.7 676.57,-40.69 566.99,-25.02 518.77,-18.85"/>
<polygon fill="red" stroke="red" stroke-width="0.28" points="519.02,-15.35 508.66,-17.58 518.15,-22.29 519.02,-15.35"/>
</g>
<!-- &#45;4 -->
<g id="node4" class="node">
<title>&#45;4</title>
<polygon fill="lightgray" stroke="black" points="841,-83.7 817,-83.7 817,-65.7 841,-65.7 841,-83.7"/>
<text text-anchor="middle" x="829" y="-72.5" font-family="Times New Roman,serif" font-size="9.00">&#45;4</text>
</g>
<!-- &#45;4&#45;&gt;0 -->
<g id="edge7" class="edge">
<title>&#45;4&#45;&gt;0</title>
<path fill="none" stroke="red" stroke-width="0.28" d="M816.73,-68.42C813.91,-67.37 810.88,-66.39 808,-65.7 661.08,-30.52 613.65,-76.47 470,-29.7 469.12,-29.41 468.24,-29.09 467.35,-28.74"/>
<polygon fill="red" stroke="red" stroke-width="0.28" points="468.76,-25.53 458.24,-24.22 465.65,-31.8 468.76,-25.53"/>
</g>
<!-- &#45;4&#45;&gt;1 -->
<g id="edge8" class="edge">
<title>&#45;4&#45;&gt;1</title>
<path fill="none" stroke="green" stroke-width="0.12" d="M816.7,-68.53C813.88,-67.48 810.86,-66.46 808,-65.7 702.69,-37.6 573.03,-23.19 519.23,-18.07"/>
<polygon fill="green" stroke="green" stroke-width="0.12" points="519.22,-14.55 508.94,-17.12 518.57,-21.52 519.22,-14.55"/>
</g>
<!-- &#45;5 -->
<g id="node5" class="node">
<title>&#45;5</title>
<polygon fill="lightgray" stroke="black" points="883,-83.7 859,-83.7 859,-65.7 883,-65.7 883,-83.7"/>
<text text-anchor="middle" x="871" y="-72.5" font-family="Times New Roman,serif" font-size="9.00">&#45;5</text>
</g>
<!-- &#45;5&#45;&gt;0 -->
<g id="edge9" class="edge">
<title>&#45;5&#45;&gt;0</title>
<path fill="none" stroke="red" stroke-width="0.17" d="M858.74,-68.39C855.91,-67.35 852.89,-66.37 850,-65.7 684.79,-27.15 631.61,-81.27 470,-29.7 468.95,-29.36 467.89,-28.97 466.83,-28.55"/>
<polygon fill="red" stroke="red" stroke-width="0.17" points="468.24,-25.34 457.74,-23.96 465.09,-31.59 468.24,-25.34"/>
</g>
<!-- &#45;5&#45;&gt;1 -->
<g id="edge10" class="edge">
<title>&#45;5&#45;&gt;1</title>
<path fill="none" stroke="red" stroke-width="0.38" d="M858.71,-68.49C855.89,-67.44 852.87,-66.44 850,-65.7 728.2,-34.4 577.57,-21.49 518.96,-17.41"/>
<polygon fill="red" stroke="red" stroke-width="0.38" points="519.02,-13.9 508.81,-16.73 518.55,-20.89 519.02,-13.9"/>
</g>
<!-- &#45;6 -->
<g id="node6" class="node">
<title>&#45;6</title>
<polygon fill="lightgray" stroke="black" points="925,-83.7 901,-83.7 901,-65.7 925,-65.7 925,-83.7"/>
<text text-anchor="middle" x="913" y="-72.5" font-family="Times New Roman,serif" font-size="9.00">&#45;6</text>
</g>
<!-- &#45;6&#45;&gt;0 -->
<g id="edge11" class="edge">
<title>&#45;6&#45;&gt;0</title>
<path fill="none" stroke="red" stroke-width="0.3" d="M900.74,-68.37C897.92,-67.33 894.89,-66.36 892,-65.7 708.49,-23.79 649.59,-86.09 470,-29.7 468.94,-29.37 467.88,-28.98 466.83,-28.56"/>
<polygon fill="red" stroke="red" stroke-width="0.3" points="468.24,-25.35 457.73,-23.99 465.09,-31.6 468.24,-25.35"/>
</g>
<!-- &#45;6&#45;&gt;1 -->
<g id="edge12" class="edge">
<title>&#45;6&#45;&gt;1</title>
<path fill="none" stroke="red" stroke-width="0.21" d="M900.72,-68.46C897.9,-67.41 894.88,-66.42 892,-65.7 754,-31.3 582.87,-20.06 519.31,-16.92"/>
<polygon fill="red" stroke="red" stroke-width="0.21" points="519.21,-13.41 509.05,-16.44 518.88,-20.4 519.21,-13.41"/>
</g>
<!-- &#45;7 -->
<g id="node7" class="node">
<title>&#45;7</title>
<polygon fill="lightgray" stroke="black" points="24,-83.7 0,-83.7 0,-65.7 24,-65.7 24,-83.7"/>
<text text-anchor="middle" x="12" y="-72.5" font-family="Times New Roman,serif" font-size="9.00">&#45;7</text>
</g>
<!-- &#45;7&#45;&gt;0 -->
<g id="edge13" class="edge">
<title>&#45;7&#45;&gt;0</title>
<path fill="none" stroke="green" stroke-width="0.32" d="M24.28,-68.45C27.1,-67.4 30.12,-66.41 33,-65.7 177.16,-30.11 356.16,-19.53 421.05,-16.75"/>
<polygon fill="green" stroke="green" stroke-width="0.32" points="421.28,-20.24 431.13,-16.34 421,-13.25 421.28,-20.24"/>
</g>
<!-- &#45;7&#45;&gt;1 -->
<g id="edge14" class="edge">
<title>&#45;7&#45;&gt;1</title>
<path fill="none" stroke="green" stroke-width="0.2" d="M24.26,-68.37C27.08,-67.33 30.11,-66.35 33,-65.7 223.05,-22.58 283.98,-87.81 470,-29.7 471.06,-29.37 472.12,-28.99 473.17,-28.56"/>
<polygon fill="green" stroke="green" stroke-width="0.2" points="474.91,-31.61 482.27,-23.99 471.76,-25.35 474.91,-31.61"/>
</g>
<!-- &#45;8 -->
<g id="node8" class="node">
<title>&#45;8</title>
<polygon fill="lightgray" stroke="black" points="66,-83.7 42,-83.7 42,-65.7 66,-65.7 66,-83.7"/>
<text text-anchor="middle" x="54" y="-72.5" font-family="Times New Roman,serif" font-size="9.00">&#45;8</text>
</g>
<!-- &#45;8&#45;&gt;0 -->
<g id="edge15" class="edge">
<title>&#45;8&#45;&gt;0</title>
<path fill="none" stroke="red" stroke-width="0.41" d="M66.28,-68.48C69.11,-67.43 72.13,-66.43 75,-65.7 202.49,-33.31 360.3,-20.98 420.79,-17.23"/>
<polygon fill="red" stroke="red" stroke-width="0.41" points="421.15,-20.72 430.92,-16.63 420.73,-13.73 421.15,-20.72"/>
</g>
<!-- &#45;8&#45;&gt;1 -->
<g id="edge16" class="edge">
<title>&#45;8&#45;&gt;1</title>
<path fill="none" stroke="red" stroke-width="0.22" d="M66.26,-68.39C69.09,-67.34 72.11,-66.37 75,-65.7 246.74,-25.95 301.97,-82.99 470,-29.7 471.05,-29.36 472.11,-28.98 473.17,-28.55"/>
<polygon fill="red" stroke="red" stroke-width="0.22" points="474.91,-31.59 482.27,-23.97 471.76,-25.34 474.91,-31.59"/>
</g>
<!-- &#45;9 -->
<g id="node9" class="node">
<title>&#45;9</title>
<polygon fill="lightgray" stroke="black" points="108,-83.7 84,-83.7 84,-65.7 108,-65.7 108,-83.7"/>
<text text-anchor="middle" x="96" y="-72.5" font-family="Times New Roman,serif" font-size="9.00">&#45;9</text>
</g>
<!-- &#45;9&#45;&gt;0 -->
<g id="edge17" class="edge">
<title>&#45;9&#45;&gt;0</title>
<path fill="none" stroke="red" stroke-width="0.32" d="M108.29,-68.51C111.12,-67.46 114.13,-66.45 117,-65.7 228.07,-36.49 365.04,-22.58 420.7,-17.83"/>
<polygon fill="red" stroke="red" stroke-width="0.32" points="421.34,-21.29 431.01,-16.97 420.76,-14.31 421.34,-21.29"/>
</g>
<!-- &#45;9&#45;&gt;1 -->
<g id="edge18" class="edge">
<title>&#45;9&#45;&gt;1</title>
<path fill="none" stroke="red" stroke-width="0.39" d="M108.27,-68.41C111.09,-67.37 114.11,-66.38 117,-65.7 270.45,-29.32 319.94,-78.18 470,-29.7 471.05,-29.36 472.11,-28.97 473.16,-28.54"/>
<polygon fill="red" stroke="red" stroke-width="0.39" points="474.91,-31.58 482.26,-23.94 471.75,-25.33 474.91,-31.58"/>
</g>
<!-- &#45;10 -->
<g id="node10" class="node">
<title>&#45;10</title>
<polygon fill="lightgray" stroke="black" points="155.5,-83.7 126.5,-83.7 126.5,-65.7 155.5,-65.7 155.5,-83.7"/>
<text text-anchor="middle" x="141" y="-72.5" font-family="Times New Roman,serif" font-size="9.00">&#45;10</text>
</g>
<!-- &#45;10&#45;&gt;0 -->
<g id="edge19" class="edge">
<title>&#45;10&#45;&gt;0</title>
<path fill="none" stroke="red" stroke-width="0.22" d="M155.99,-68.1C158.63,-67.22 161.38,-66.38 164,-65.7 257.48,-41.34 371.51,-25.24 421.05,-18.9"/>
<polygon fill="red" stroke="red" stroke-width="0.22" points="421.66,-22.35 431.14,-17.62 420.78,-15.4 421.66,-22.35"/>
</g>
<!-- &#45;10&#45;&gt;1 -->
<g id="edge20" class="edge">
<title>&#45;10&#45;&gt;1</title>
<path fill="none" stroke="green" stroke-width="0.37" d="M155.96,-67.97C158.61,-67.11 161.36,-66.3 164,-65.7 297.46,-35.02 340.02,-72.81 470,-29.7 470.88,-29.41 471.76,-29.08 472.64,-28.73"/>
<polygon fill="green" stroke="green" stroke-width="0.37" points="474.36,-31.78 481.75,-24.19 471.24,-25.52 474.36,-31.78"/>
</g>
<!-- &#45;11 -->
<g id="node11" class="node">
<title>&#45;11</title>
<polygon fill="lightgray" stroke="black" points="202.5,-83.7 173.5,-83.7 173.5,-65.7 202.5,-65.7 202.5,-83.7"/>
<text text-anchor="middle" x="188" y="-72.5" font-family="Times New Roman,serif" font-size="9.00">&#45;11</text>
</g>
<!-- &#45;11&#45;&gt;0 -->
<g id="edge21" class="edge">
<title>&#45;11&#45;&gt;0</title>
<path fill="none" stroke="green" stroke-width="0.42" d="M202.51,-68.34C205.31,-67.4 208.23,-66.47 211,-65.7 286.76,-44.58 378.43,-27.52 421.45,-20.01"/>
<polygon fill="green" stroke="green" stroke-width="0.42" points="422.28,-23.41 431.54,-18.26 421.09,-16.52 422.28,-23.41"/>
</g>
<!-- &#45;11&#45;&gt;1 -->
<g id="edge22" class="edge">
<title>&#45;11&#45;&gt;1</title>
<path fill="none" stroke="green" stroke-width="0.48" d="M202.97,-68.02C205.62,-67.15 208.37,-66.33 211,-65.7 323.98,-38.48 360.08,-67.44 470,-29.7 470.88,-29.4 471.76,-29.06 472.63,-28.7"/>
<polygon fill="green" stroke="green" stroke-width="0.48" points="474.36,-31.75 481.73,-24.14 471.22,-25.5 474.36,-31.75"/>
</g>
<!-- &#45;12 -->
<g id="node12" class="node">
<title>&#45;12</title>
<polygon fill="lightgray" stroke="black" points="249.5,-83.7 220.5,-83.7 220.5,-65.7 249.5,-65.7 249.5,-83.7"/>
<text text-anchor="middle" x="235" y="-72.5" font-family="Times New Roman,serif" font-size="9.00">&#45;12</text>
</g>
<!-- &#45;12&#45;&gt;0 -->
<g id="edge23" class="edge">
<title>&#45;12&#45;&gt;0</title>
<path fill="none" stroke="green" stroke-width="0.24" d="M249.55,-68.45C252.34,-67.5 255.25,-66.54 258,-65.7 316.23,-47.88 385.72,-30.43 421.7,-21.67"/>
<polygon fill="green" stroke="green" stroke-width="0.24" points="422.85,-24.99 431.75,-19.24 421.2,-18.19 422.85,-24.99"/>
</g>
<!-- &#45;12&#45;&gt;1 -->
<g id="edge24" class="edge">
<title>&#45;12&#45;&gt;1</title>
<path fill="none" stroke="red" stroke-width="0.11" d="M249.98,-68.08C252.63,-67.21 255.38,-66.37 258,-65.7 350.57,-41.92 380.09,-62.09 470,-29.7 470.87,-29.38 471.75,-29.04 472.62,-28.67"/>
<polygon fill="red" stroke="red" stroke-width="0.11" points="474.37,-31.71 481.7,-24.06 471.2,-25.47 474.37,-31.71"/>
</g>
<!-- &#45;13 -->
<g id="node13" class="node">
<title>&#45;13</title>
<polygon fill="lightgray" stroke="black" points="296.5,-83.7 267.5,-83.7 267.5,-65.7 296.5,-65.7 296.5,-83.7"/>
<text text-anchor="middle" x="282" y="-72.5" font-family="Times New Roman,serif" font-size="9.00">&#45;13</text>
</g>
<!-- &#45;13&#45;&gt;0 -->
<g id="edge25" class="edge">
<title>&#45;13&#45;&gt;0</title>
<path fill="none" stroke="green" stroke-width="0.21" d="M296.55,-68.56C324.97,-58.54 388.06,-36.29 422.48,-24.14"/>
<polygon fill="green" stroke="green" stroke-width="0.21" points="423.91,-27.35 432.18,-20.73 421.58,-20.75 423.91,-27.35"/>
</g>
<!-- &#45;13&#45;&gt;1 -->
<g id="edge26" class="edge">
<title>&#45;13&#45;&gt;1</title>
<path fill="none" stroke="red" stroke-width="0.42" d="M296.52,-68.35C299.31,-67.41 302.23,-66.48 305,-65.7 377.24,-45.33 400,-56.78 470,-29.7 470.86,-29.36 471.73,-29 472.6,-28.62"/>
<polygon fill="red" stroke="red" stroke-width="0.42" points="474.38,-31.64 481.66,-23.94 471.17,-25.42 474.38,-31.64"/>
</g>
<!-- &#45;14 -->
<g id="node14" class="node">
<title>&#45;14</title>
<polygon fill="lightgray" stroke="black" points="343.5,-83.7 314.5,-83.7 314.5,-65.7 343.5,-65.7 343.5,-83.7"/>
<text text-anchor="middle" x="329" y="-72.5" font-family="Times New Roman,serif" font-size="9.00">&#45;14</text>
</g>
<!-- &#45;14&#45;&gt;0 -->
<g id="edge27" class="edge">
<title>&#45;14&#45;&gt;0</title>
<path fill="none" stroke="red" stroke-width="0.29" d="M343.82,-66.37C364.05,-56.37 400.47,-38.36 423.92,-26.76"/>
<polygon fill="red" stroke="red" stroke-width="0.29" points="425.68,-29.8 433.1,-22.23 422.58,-23.52 425.68,-29.8"/>
</g>
<!-- &#45;14&#45;&gt;1 -->
<g id="edge28" class="edge">
<title>&#45;14&#45;&gt;1</title>
<path fill="none" stroke="green" stroke-width="0.35" d="M343.57,-68.53C346.36,-67.57 349.27,-66.59 352,-65.7 404.13,-48.69 419.71,-51.54 470,-29.7 470.85,-29.33 471.71,-28.94 472.57,-28.53"/>
<polygon fill="green" stroke="green" stroke-width="0.35" points="474.39,-31.52 481.57,-23.74 471.1,-25.34 474.39,-31.52"/>
</g>
<!-- &#45;15 -->
<g id="node15" class="node">
<title>&#45;15</title>
<polygon fill="lightgray" stroke="black" points="390.5,-83.7 361.5,-83.7 361.5,-65.7 390.5,-65.7 390.5,-83.7"/>
<text text-anchor="middle" x="376" y="-72.5" font-family="Times New Roman,serif" font-size="9.00">&#45;15</text>
</g>
<!-- &#45;15&#45;&gt;0 -->
<g id="edge29" class="edge">
<title>&#45;15&#45;&gt;0</title>
<path fill="none" stroke="red" stroke-width="0.12" d="M385.73,-65.65C396.33,-56.89 413.56,-42.66 426.88,-31.65"/>
<polygon fill="red" stroke="red" stroke-width="0.12" points="429.49,-34.04 434.97,-24.97 425.03,-28.64 429.49,-34.04"/>
</g>
<!-- &#45;15&#45;&gt;1 -->
<g id="edge30" class="edge">
<title>&#45;15&#45;&gt;1</title>
<path fill="none" stroke="red" stroke-width="0.1" d="M390.52,-67.37C409.15,-59.14 442.36,-44.11 470,-29.7 470.82,-29.27 471.65,-28.83 472.49,-28.38"/>
<polygon fill="red" stroke="red" stroke-width="0.1" points="474.39,-31.32 481.41,-23.39 470.97,-25.22 474.39,-31.32"/>
</g>
<!-- &#45;16 -->
<g id="node16" class="node">
<title>&#45;16</title>
<polygon fill="lightgray" stroke="black" points="437.5,-83.7 408.5,-83.7 408.5,-65.7 437.5,-65.7 437.5,-83.7"/>
<text text-anchor="middle" x="423" y="-72.5" font-family="Times New Roman,serif" font-size="9.00">&#45;16</text>
</g>
<!-- &#45;16&#45;&gt;0 -->
<g id="edge31" class="edge">
<title>&#45;16&#45;&gt;0</title>
<path fill="none" stroke="red" stroke-width="0.25" d="M426.2,-65.65C428.98,-58.65 433.16,-48.15 436.96,-38.59"/>
<polygon fill="red" stroke="red" stroke-width="0.25" points="440.27,-39.74 440.71,-29.16 433.76,-37.16 440.27,-39.74"/>
</g>
<!-- &#45;16&#45;&gt;1 -->
<g id="edge32" class="edge">
<title>&#45;16&#45;&gt;1</title>
<path fill="none" stroke="red" stroke-width="0.2" d="M432.87,-65.65C443.73,-56.81 461.43,-42.39 474.99,-31.34"/>
<polygon fill="red" stroke="red" stroke-width="0.2" points="477.27,-34 482.81,-24.97 472.85,-28.57 477.27,-34"/>
</g>
<!-- &#45;17 -->
<g id="node17" class="node">
<title>&#45;17</title>
<polygon fill="lightgray" stroke="black" points="484.5,-83.7 455.5,-83.7 455.5,-65.7 484.5,-65.7 484.5,-83.7"/>
<text text-anchor="middle" x="470" y="-72.5" font-family="Times New Roman,serif" font-size="9.00">&#45;17</text>
</g>
<!-- &#45;17&#45;&gt;0 -->
<g id="edge33" class="edge">
<title>&#45;17&#45;&gt;0</title>
<path fill="none" stroke="red" stroke-width="0.11" d="M466.66,-65.65C463.72,-58.56 459.28,-47.87 455.28,-38.21"/>
<polygon fill="red" stroke="red" stroke-width="0.11" points="458.4,-36.61 451.34,-28.71 451.94,-39.29 458.4,-36.61"/>
</g>
<!-- &#45;17&#45;&gt;1 -->
<g id="edge34" class="edge">
<title>&#45;17&#45;&gt;1</title>
<path fill="none" stroke="red" stroke-width="0.13" d="M473.34,-65.65C476.28,-58.56 480.72,-47.87 484.72,-38.21"/>
<polygon fill="red" stroke="red" stroke-width="0.13" points="488.06,-39.29 488.66,-28.71 481.6,-36.61 488.06,-39.29"/>
</g>
<!-- &#45;18 -->
<g id="node18" class="node">
<title>&#45;18</title>
<polygon fill="lightgray" stroke="black" points="531.5,-83.7 502.5,-83.7 502.5,-65.7 531.5,-65.7 531.5,-83.7"/>
<text text-anchor="middle" x="517" y="-72.5" font-family="Times New Roman,serif" font-size="9.00">&#45;18</text>
</g>
<!-- &#45;18&#45;&gt;0 -->
<g id="edge35" class="edge">
<title>&#45;18&#45;&gt;0</title>
<path fill="none" stroke="red" stroke-width="0.13" d="M507.13,-65.65C496.27,-56.81 478.57,-42.39 465.01,-31.34"/>
<polygon fill="red" stroke="red" stroke-width="0.13" points="467.15,-28.57 457.19,-24.97 462.73,-34 467.15,-28.57"/>
</g>
<!-- &#45;18&#45;&gt;1 -->
<g id="edge36" class="edge">
<title>&#45;18&#45;&gt;1</title>
<path fill="none" stroke="red" stroke-width="0.22" d="M513.8,-65.65C511.02,-58.65 506.84,-48.15 503.04,-38.59"/>
<polygon fill="red" stroke="red" stroke-width="0.22" points="506.24,-37.16 499.29,-29.16 499.73,-39.74 506.24,-37.16"/>
</g>
<!-- &#45;19 -->
<g id="node19" class="node">
<title>&#45;19</title>
<polygon fill="lightgray" stroke="black" points="578.5,-83.7 549.5,-83.7 549.5,-65.7 578.5,-65.7 578.5,-83.7"/>
<text text-anchor="middle" x="564" y="-72.5" font-family="Times New Roman,serif" font-size="9.00">&#45;19</text>
</g>
<!-- &#45;19&#45;&gt;0 -->
<g id="edge37" class="edge">
<title>&#45;19&#45;&gt;0</title>
<path fill="none" stroke="red" stroke-width="0.12" d="M549.48,-67.37C530.85,-59.14 497.64,-44.11 470,-29.7 469.18,-29.27 468.35,-28.83 467.51,-28.38"/>
<polygon fill="red" stroke="red" stroke-width="0.12" points="469.03,-25.22 458.59,-23.39 465.61,-31.32 469.03,-25.22"/>
</g>
<!-- &#45;19&#45;&gt;1 -->
<g id="edge38" class="edge">
<title>&#45;19&#45;&gt;1</title>
<path fill="none" stroke="red" stroke-width="0.26" d="M554.27,-65.65C543.67,-56.89 526.44,-42.66 513.12,-31.65"/>
<polygon fill="red" stroke="red" stroke-width="0.26" points="514.97,-28.64 505.03,-24.97 510.51,-34.04 514.97,-28.64"/>
</g>
<!-- &#45;20 -->
<g id="node20" class="node">
<title>&#45;20</title>
<polygon fill="lightgray" stroke="black" points="625.5,-83.7 596.5,-83.7 596.5,-65.7 625.5,-65.7 625.5,-83.7"/>
<text text-anchor="middle" x="611" y="-72.5" font-family="Times New Roman,serif" font-size="9.00">&#45;20</text>
</g>
<!-- &#45;20&#45;&gt;0 -->
<g id="edge39" class="edge">
<title>&#45;20&#45;&gt;0</title>
<path fill="none" stroke="red" stroke-width="0.16" d="M596.43,-68.53C593.64,-67.57 590.73,-66.59 588,-65.7 535.87,-48.69 520.29,-51.54 470,-29.7 469.15,-29.33 468.29,-28.94 467.43,-28.53"/>
<polygon fill="red" stroke="red" stroke-width="0.16" points="468.9,-25.34 458.43,-23.74 465.61,-31.52 468.9,-25.34"/>
</g>
<!-- &#45;20&#45;&gt;1 -->
<g id="edge40" class="edge">
<title>&#45;20&#45;&gt;1</title>
<path fill="none" stroke="green" stroke-width="0.15" d="M596.18,-66.37C575.95,-56.37 539.53,-38.36 516.08,-26.76"/>
<polygon fill="green" stroke="green" stroke-width="0.15" points="517.42,-23.52 506.9,-22.23 514.32,-29.8 517.42,-23.52"/>
</g>
<!-- &#45;21 -->
<g id="node21" class="node">
<title>&#45;21</title>
<polygon fill="lightgray" stroke="black" points="672.5,-83.7 643.5,-83.7 643.5,-65.7 672.5,-65.7 672.5,-83.7"/>
<text text-anchor="middle" x="658" y="-72.5" font-family="Times New Roman,serif" font-size="9.00">&#45;21</text>
</g>
<!-- &#45;21&#45;&gt;0 -->
<g id="edge41" class="edge">
<title>&#45;21&#45;&gt;0</title>
<path fill="none" stroke="green" stroke-width="0.17" d="M643.48,-68.35C640.69,-67.41 637.77,-66.48 635,-65.7 562.76,-45.33 540,-56.78 470,-29.7 469.14,-29.36 468.27,-29 467.4,-28.62"/>
<polygon fill="green" stroke="green" stroke-width="0.17" points="468.83,-25.42 458.34,-23.94 465.62,-31.64 468.83,-25.42"/>
</g>
<!-- &#45;21&#45;&gt;1 -->
<g id="edge42" class="edge">
<title>&#45;21&#45;&gt;1</title>
<path fill="none" stroke="red" stroke-width="0.19" d="M643.45,-68.56C615.03,-58.54 551.94,-36.29 517.52,-24.14"/>
<polygon fill="red" stroke="red" stroke-width="0.19" points="518.42,-20.75 507.82,-20.73 516.09,-27.35 518.42,-20.75"/>
</g>
</g>
</svg>
